<?xml version="1.0" encoding="UTF-8"?>
<svg version="1.1" xmlns="http://www.w3.org/2000/svg" width="512" height="512">
<path d="M0 0 C1.02222656 0.21962402 2.04445312 0.43924805 3.09765625 0.66552734 C17.09490577 3.75972534 30.61914179 7.87607874 44 13 C44.86802246 13.32838867 45.73604492 13.65677734 46.63037109 13.99511719 C57.468712 18.1324284 67.9452082 22.79159092 78.25 28.125 C79.1778833 28.60348389 80.1057666 29.08196777 81.06176758 29.57495117 C86.60537689 32.51268869 91.71730759 35.7966654 96.81152344 39.45556641 C99.2858799 41.2017488 101.83639605 42.68632503 104.5 44.125 C116.25905937 50.86180305 127.13193533 59.240023 137.484375 67.95703125 C140.13596052 70.11041514 142.88354286 72.05025385 145.6875 74 C150.15933563 77.19507574 153.59237844 80.66768893 157.12109375 84.859375 C158.89226318 86.87725618 160.70300798 88.58075316 162.75 90.3125 C166.39808259 93.40434029 169.8043328 96.68710187 173.1875 100.0625 C173.68668945 100.5572583 174.18587891 101.0520166 174.70019531 101.56176758 C177.12001654 103.99084627 179.40061756 106.44911897 181.55078125 109.12109375 C183.86087056 111.83646189 186.22884135 113.78576789 189 116 C190.81640625 118.26953125 190.81640625 118.26953125 192.5625 120.8125 C195.28088971 124.66693318 198.08788382 128.37711186 201.08398438 132.01464844 C206.78662749 138.94897207 212.00112394 146.14710947 217.0625 153.5625 C217.70582275 154.50262939 218.34914551 155.44275879 219.01196289 156.41137695 C221.36084215 159.88861795 223.63536773 163.26216708 225.49609375 167.02734375 C226.90046383 169.80325448 228.45285667 172.07551344 230.27734375 174.5859375 C234.34415912 180.3010576 237.47273825 186.33990694 240.5625 192.625 C241.1304126 193.77145996 241.6983252 194.91791992 242.28344727 196.09912109 C246.43715995 204.59581441 249.90803735 213.07087423 253 222 C253.74308707 223.87447162 254.48628091 225.74890757 255.23510742 227.62109375 C264.14866195 250.24496402 270.05432849 276.10114546 270.203125 300.48828125 C270.21018463 301.26512772 270.21724426 302.04197418 270.22451782 302.84236145 C270.51798652 344.6084822 263.08311425 383.24800775 232.875 414.375 C229.81015656 417.3678706 226.60519897 419.67664955 223 422 C221.87271484 423.15822266 221.87271484 423.15822266 220.72265625 424.33984375 C206.72626987 438.01493575 186.58181063 444.59629872 168 449 C167.23719727 449.18079102 166.47439453 449.36158203 165.68847656 449.54785156 C128.11258288 457.89252023 86.7049571 450.7832913 50.81640625 438.8828125 C48.17384737 437.90029873 48.17384737 437.90029873 46 438 C46.27263672 438.85380249 46.27263672 438.85380249 46.55078125 439.72485352 C47.37756086 442.33424418 48.18885711 444.94820838 49 447.5625 C49.28617188 448.45775391 49.57234375 449.35300781 49.8671875 450.27539062 C52.186049 457.8116905 53.20433039 464.52322909 50 472 C45.99999152 476.82152612 41.5263752 480.04623384 35.26171875 480.9609375 C23.62473948 481.1619216 12.12495455 470.79050471 3.80419922 463.51538086 C0.64556384 460.8623836 -2.73877739 458.53814724 -6.125 456.1875 C-6.86999756 455.66615479 -7.61499512 455.14480957 -8.38256836 454.60766602 C-10.58559925 453.06774058 -12.79220806 451.53308908 -15 450 C-15.59151855 449.58814453 -16.18303711 449.17628906 -16.79248047 448.75195312 C-19.94304536 446.55846255 -23.10025294 444.37478966 -26.26220703 442.19775391 C-28.23772959 440.8361476 -30.21061468 439.47075774 -32.18359375 438.10546875 C-33.62231849 437.11186717 -35.06111961 436.11837616 -36.5 435.125 C-37.1710376 434.6602124 -37.8420752 434.1954248 -38.53344727 433.71655273 C-41.95901647 431.35577507 -45.39965044 429.09097224 -49 427 C-49.48766846 427.35715088 -49.97533691 427.71430176 -50.4777832 428.08227539 C-66.53769582 439.82222093 -66.53769582 439.82222093 -72.625 443.5625 C-79.44740888 447.78189749 -85.73121097 452.73061768 -92.11230469 457.578125 C-94.75639013 459.56973825 -97.43778282 461.50446094 -100.125 463.4375 C-102.92481492 465.45587404 -105.64180596 467.49002035 -108.25 469.75 C-110.82579081 471.85746521 -113.30320502 473.44923282 -116.21484375 475.0234375 C-117.41502784 475.67999335 -118.595416 476.37395838 -119.75390625 477.1015625 C-124.53437506 480.07465048 -128.54375728 481.52889124 -134.1953125 480.6640625 C-140.49769184 479.01903467 -144.59355233 475.53547747 -148 470 C-149.9582372 463.39094945 -149.0267727 457.21350485 -147.05078125 450.734375 C-146.84176178 450.03928329 -146.63274231 449.34419159 -146.41738892 448.6280365 C-145.72474691 446.33252538 -145.01861798 444.04139798 -144.3125 441.75 C-143.82207903 440.13284678 -143.3325964 438.51540873 -142.84399414 436.89770508 C-141.79687043 433.43681904 -140.74400306 429.97775525 -139.68652344 426.52001953 C-137.03992397 417.86502344 -134.42210711 409.20130327 -131.80136108 400.53845215 C-130.95064902 397.73089499 -130.09644118 394.92442223 -129.24145508 392.11816406 C-128.71172536 390.37435684 -128.18202037 388.6305421 -127.65234375 386.88671875 C-127.41319244 386.10481674 -127.17404114 385.32291473 -126.92764282 384.51731873 C-125.46977515 379.70830002 -124.18288003 374.88418331 -123 370 C-127.36357812 366.84314714 -131.72903821 363.68893806 -136.09765625 360.5390625 C-139.06968829 358.39596456 -142.03650911 356.2461852 -144.99609375 354.0859375 C-150.45507333 350.11903022 -155.8565503 346.4062377 -161.85424805 343.28125 C-164.05354099 341.96803014 -165.74980354 340.53268427 -167.625 338.79296875 C-172.94604235 334.04525606 -178.82769934 330.19493417 -184.75390625 326.25 C-191.6898502 321.52046745 -198.16484999 316.17190296 -201 308 C-201.11325819 301.09125043 -198.59928281 296.12959843 -194 291 C-188.50669148 286.19672932 -183.388074 286.36203454 -176.29296875 286.28515625 C-174.53136665 286.24347069 -174.53136665 286.24347069 -172.73417664 286.20094299 C-169.50402507 286.12926168 -166.27418816 286.07532639 -163.04357147 286.03037262 C-160.27492564 285.98922357 -157.50659471 285.93493354 -154.73817635 285.88083458 C-146.00951412 285.71087594 -137.28047961 285.58425361 -128.55096436 285.46777344 C-124.74813647 285.41634324 -120.94536057 285.36131043 -117.14257812 285.30664062 C-109.76176348 285.20103316 -102.38090381 285.09920296 -95 285 C-94.69408936 284.07179443 -94.38817871 283.14358887 -94.07299805 282.18725586 C-88.52359145 265.36686429 -82.92604476 248.56703275 -77 231.875 C-76.77524994 231.24004608 -76.55049988 230.60509216 -76.31893921 229.95089722 C-73.95840586 223.2913829 -71.52324579 216.67950858 -68.85791016 210.13574219 C-68.11944948 208.29736598 -67.43517926 206.43738868 -66.76171875 204.57421875 C-64.28202491 197.91060513 -62.32354415 194.39597741 -56 191 C-50.52421337 189.17473779 -45.09259653 189.19872977 -39.75 191.5 C-22.28014068 201.58142079 -16.43100072 244.79930108 -11.09375 263.2890625 C-10.28752316 266.024475 -9.45712304 268.74364586 -8.59375 271.4609375 C-8.35889893 272.20021484 -8.12404785 272.93949219 -7.88208008 273.70117188 C-7.43276456 275.10739519 -6.97972336 276.51243585 -6.5222168 277.91601562 C-5.61821708 280.74160827 -5 283.01085831 -5 286 C-4.21026794 285.99777939 -3.42053589 285.99555878 -2.60687256 285.99327087 C4.97793486 285.97290939 12.56272832 285.95784841 20.1475563 285.94818783 C24.04337007 285.94305374 27.93916057 285.93613781 31.83496094 285.92456055 C42.22381303 285.89476833 52.61146434 285.9079921 63 286 C63.69801727 286.00583351 64.39603455 286.01166702 65.11520386 286.01767731 C69.69771055 286.05992929 74.27785178 286.14600353 78.859375 286.25390625 C80.00666077 286.26775864 81.15394653 286.28161102 82.33599854 286.29588318 C90.54252737 286.54372063 94.02993688 287.89493401 99.75 293.875 C103.69158291 299.34942071 104.26252343 303.32884771 103.484375 309.8515625 C101.10748076 320.39423858 87.06179216 326.79293215 78.68969727 332.34350586 C75.22477835 334.66486388 71.94933934 336.87930965 69.05078125 339.89453125 C68.37402344 340.58933594 67.69726562 341.28414063 67 342 C66.34 342 65.68 342 65 342 C65 342.66 65 343.32 65 344 C66.25296875 344.41378906 67.5059375 344.82757813 68.796875 345.25390625 C72.34180802 346.4334751 75.86902483 347.65495326 79.390625 348.90234375 C92.45545435 353.47258826 105.30391909 356.95957587 119 359 C120.2890625 359.19207031 121.578125 359.38414062 122.90625 359.58203125 C146.52270182 362.38134451 172.67196639 359.1861842 192.375 345 C208.86476578 331.57545746 217.70209845 311.87439541 220 291 C222.21927518 245.24645002 206.58749919 198.22858458 178.9765625 161.65234375 C176.8249994 158.76516718 174.82320015 155.79930368 172.8125 152.8125 C167.77019255 145.48457914 162.15697843 138.66818283 156.4921875 131.81689453 C153.84075016 128.58849193 151.26300665 125.30164767 148.68359375 122.015625 C146.98563312 119.91018214 146.98563312 119.91018214 144.78515625 117.859375 C143 116 143 116 143 114 C142.42765625 113.75636719 141.8553125 113.51273437 141.265625 113.26171875 C138.59566462 111.77482702 136.86170993 110.01916092 134.75 107.8125 C130.66538504 103.64182346 126.44276299 99.7818561 122 96 C120.28442902 94.53079453 118.56988372 93.06039797 116.85546875 91.58984375 C115.61838131 90.52985514 114.38009828 89.47126029 113.140625 88.4140625 C109.9841881 85.71921207 106.87719588 82.98679953 103.8125 80.1875 C100.17036169 76.99102419 96.22226214 74.47853123 92.1015625 71.94140625 C89.2502657 70.15665246 86.47145145 68.29928041 83.69384766 66.40380859 C67.97040029 55.71610845 51.35563813 47.71917222 34 40 C34 39.34 34 38.68 34 38 C33.42749512 37.82911865 32.85499023 37.6582373 32.26513672 37.48217773 C27.44410168 36.03988555 22.62935053 34.57948495 17.8203125 33.09765625 C-27.89328039 19.12659239 -73.33802218 15.15138614 -118 35 C-119.67760873 35.98153285 -121.34963496 36.97331942 -123 38 C-123.66 38 -124.32 38 -125 38 C-125.33 38.99 -125.66 39.98 -126 41 C-127.64453125 42.25390625 -127.64453125 42.25390625 -129.8125 43.5625 C-138.96414005 49.46443347 -146.77081501 56.11275114 -153.328125 64.82421875 C-155 67 -155 67 -157.6875 69.625 C-178.76812506 91.27537169 -181.42199929 129.07263157 -181.13671875 157.265625 C-181.01216427 164.86664224 -180.65860211 172.42607577 -180 180 C-180.66 180 -181.32 180 -182 180 C-182.48404266 177.37581903 -182.96229498 174.75078403 -183.4375 172.125 C-183.57220703 171.39796875 -183.70691406 170.6709375 -183.84570312 169.921875 C-190.96411344 130.33656887 -186.2856944 84.91143049 -163.26171875 51.12109375 C-160.12017444 46.78587111 -156.66485401 42.89201438 -153 39 C-151.87150754 37.66962128 -150.74645656 36.33631506 -149.625 35 C-132.59108341 15.71775884 -108.72551171 4.81511579 -84 -1 C-83.31615234 -1.16371094 -82.63230469 -1.32742188 -81.92773438 -1.49609375 C-55.90407633 -7.35444282 -25.84226359 -5.58648934 0 0 Z " fill="#FEAB33" transform="translate(242,4)"/>
<path d="M0 0 C1.02222656 0.21962402 2.04445312 0.43924805 3.09765625 0.66552734 C17.09490577 3.75972534 30.61914179 7.87607874 44 13 C44.86802246 13.32838867 45.73604492 13.65677734 46.63037109 13.99511719 C57.468712 18.1324284 67.9452082 22.79159092 78.25 28.125 C79.1778833 28.60348389 80.1057666 29.08196777 81.06176758 29.57495117 C86.60537689 32.51268869 91.71730759 35.7966654 96.81152344 39.45556641 C99.2858799 41.2017488 101.83639605 42.68632503 104.5 44.125 C116.25905937 50.86180305 127.13193533 59.240023 137.484375 67.95703125 C140.13596052 70.11041514 142.88354286 72.05025385 145.6875 74 C150.15933563 77.19507574 153.59237844 80.66768893 157.12109375 84.859375 C158.89226318 86.87725618 160.70300798 88.58075316 162.75 90.3125 C166.39808259 93.40434029 169.8043328 96.68710187 173.1875 100.0625 C173.68668945 100.5572583 174.18587891 101.0520166 174.70019531 101.56176758 C177.12001654 103.99084627 179.40061756 106.44911897 181.55078125 109.12109375 C183.86087056 111.83646189 186.22884135 113.78576789 189 116 C190.81640625 118.26953125 190.81640625 118.26953125 192.5625 120.8125 C195.28088971 124.66693318 198.08788382 128.37711186 201.08398438 132.01464844 C206.78662749 138.94897207 212.00112394 146.14710947 217.0625 153.5625 C217.70582275 154.50262939 218.34914551 155.44275879 219.01196289 156.41137695 C221.36084215 159.88861795 223.63536773 163.26216708 225.49609375 167.02734375 C226.90046383 169.80325448 228.45285667 172.07551344 230.27734375 174.5859375 C234.34415912 180.3010576 237.47273825 186.33990694 240.5625 192.625 C241.1304126 193.77145996 241.6983252 194.91791992 242.28344727 196.09912109 C246.43715995 204.59581441 249.90803735 213.07087423 253 222 C253.74308707 223.87447162 254.48628091 225.74890757 255.23510742 227.62109375 C264.14866195 250.24496402 270.05432849 276.10114546 270.203125 300.48828125 C270.21018463 301.26512772 270.21724426 302.04197418 270.22451782 302.84236145 C270.51798652 344.6084822 263.08311425 383.24800775 232.875 414.375 C229.81015656 417.3678706 226.60519897 419.67664955 223 422 C221.87271484 423.15822266 221.87271484 423.15822266 220.72265625 424.33984375 C206.72626987 438.01493575 186.58181063 444.59629872 168 449 C167.23719727 449.18079102 166.47439453 449.36158203 165.68847656 449.54785156 C133.60301705 456.67323175 98.23973405 452.11165506 66.95654297 443.75439453 C64.11934821 443.03045301 61.2788132 442.42441763 58.41015625 441.83984375 C46.64191177 439.18313672 46.64191177 439.18313672 43.63720703 435.18798828 C41.25082711 430.6615849 40.0895154 425.97163078 39 421 C38.67 420.67 38.34 420.34 38 420 C37.7459704 418.65027644 37.52321112 417.29466084 37.3125 415.9375 C36.43005349 411.30955828 34.97087046 407.05771312 33.25 402.6875 C30.68775479 396.134388 28.56364098 389.51366409 26.625 382.75 C26.36235352 381.84467529 26.09970703 380.93935059 25.82910156 380.0065918 C25.58901367 379.15363525 25.34892578 378.30067871 25.1015625 377.421875 C24.88838379 376.66487305 24.67520508 375.90787109 24.45556641 375.12792969 C24 373 24 373 24 369 C24.66 369 25.32 369 26 369 C26 368.34 26 367.68 26 367 C27.6105957 365.74267578 27.6105957 365.74267578 29.86328125 364.3203125 C33.30255734 362.10285792 36.69476022 359.84533309 40.04296875 357.4921875 C40.88923828 356.89792969 41.73550781 356.30367188 42.60742188 355.69140625 C43.88456055 354.79228516 43.88456055 354.79228516 45.1875 353.875 C47.72002992 352.09333967 50.25302376 350.31315979 52.79833984 348.54980469 C54.13218463 347.61087736 55.45055181 346.64862786 56.73681641 345.64550781 C59.19024505 343.78648708 60.64118897 342.99847314 63.75390625 343.01171875 C68.24835934 344.38006608 72.57723395 346.06855084 76.9375 347.8125 C85.53236032 351.14621032 93.9563644 354.11107499 103 356 C103.85899902 356.18046875 104.71799805 356.3609375 105.60302734 356.546875 C133.99141354 362.31318985 164.83971677 363.04356012 190.12890625 346.6171875 C207.39506237 334.1855551 215.87848306 315.17881808 219.58203125 294.796875 C224.66745412 248.60032334 206.67525304 198.34483221 178.9765625 161.65234375 C176.8249994 158.76516718 174.82320015 155.79930368 172.8125 152.8125 C167.77019255 145.48457914 162.15697843 138.66818283 156.4921875 131.81689453 C153.84075016 128.58849193 151.26300665 125.30164767 148.68359375 122.015625 C146.98563312 119.91018214 146.98563312 119.91018214 144.78515625 117.859375 C143 116 143 116 143 114 C142.42765625 113.75636719 141.8553125 113.51273437 141.265625 113.26171875 C138.59566462 111.77482702 136.86170993 110.01916092 134.75 107.8125 C130.66538504 103.64182346 126.44276299 99.7818561 122 96 C120.28442902 94.53079453 118.56988372 93.06039797 116.85546875 91.58984375 C115.61838131 90.52985514 114.38009828 89.47126029 113.140625 88.4140625 C109.9841881 85.71921207 106.87719588 82.98679953 103.8125 80.1875 C100.17036169 76.99102419 96.22226214 74.47853123 92.1015625 71.94140625 C89.2502657 70.15665246 86.47145145 68.29928041 83.69384766 66.40380859 C67.97040029 55.71610845 51.35563813 47.71917222 34 40 C34 39.34 34 38.68 34 38 C33.42749512 37.82911865 32.85499023 37.6582373 32.26513672 37.48217773 C27.44410168 36.03988555 22.62935053 34.57948495 17.8203125 33.09765625 C-27.89328039 19.12659239 -73.33802218 15.15138614 -118 35 C-119.67760873 35.98153285 -121.34963496 36.97331942 -123 38 C-123.66 38 -124.32 38 -125 38 C-125.33 38.99 -125.66 39.98 -126 41 C-127.64453125 42.25390625 -127.64453125 42.25390625 -129.8125 43.5625 C-138.96414005 49.46443347 -146.77081501 56.11275114 -153.328125 64.82421875 C-155 67 -155 67 -157.6875 69.625 C-178.76812506 91.27537169 -181.42199929 129.07263157 -181.13671875 157.265625 C-181.01216427 164.86664224 -180.65860211 172.42607577 -180 180 C-180.66 180 -181.32 180 -182 180 C-182.48404266 177.37581903 -182.96229498 174.75078403 -183.4375 172.125 C-183.57220703 171.39796875 -183.70691406 170.6709375 -183.84570312 169.921875 C-190.96411344 130.33656887 -186.2856944 84.91143049 -163.26171875 51.12109375 C-160.12017444 46.78587111 -156.66485401 42.89201438 -153 39 C-151.87150754 37.66962128 -150.74645656 36.33631506 -149.625 35 C-132.59108341 15.71775884 -108.72551171 4.81511579 -84 -1 C-83.31615234 -1.16371094 -82.63230469 -1.32742188 -81.92773438 -1.49609375 C-55.90407633 -7.35444282 -25.84226359 -5.58648934 0 0 Z " fill="#FCD787" transform="translate(242,4)"/>
</svg>
